{"title":"Isle of Dogs (2018) 720p HDCAM x264 ACC by Full4movies","magnet":"magnet:?xt=urn:btih:639784acbb76a68fc2032552f1ef18a5756a8e8e&dn=Isle+of+Dogs+%282018%29+720p+HDCAM+x264+ACC+by+Full4movies&tr=udp%3A%2F%2Ftracker.leechers-paradise.org%3A6969&tr=udp%3A%2F%2Fzer0day.ch%3A1337&tr=udp%3A%2F%2Fopen.demonii.com%3A1337&tr=udp%3A%2F%2Ftracker.coppersurfer.tk%3A6969&tr=udp%3A%2F%2Fexodus.desync.com%3A6969","uploader":"shmasti","categoryP":"video","categoryS":"movies","size":"828854318","seeders":"15","leechers":"20","description":"General\r\nComplete name                  : Isle of Dogs (2018) 720p HDCAM x264 ACC by Full4movies.mkv\r\nFormat                         : Matroska\r\nFormat version                 : Version 4 / Version 2\r\nFile size                      : 790 MiB\r\nDuration                       : 1 h 34 min\r\nOverall bit rate               : 1 164 kb/s\r\nMovie name                     : Isle of Dogs (2018) - www.Full4mvoeis.co\r\nEncoded date                   : UTC 2018-05-10 08:24:51\r\nWriting application            : mkvmerge v8.1.0 (&apos;Psychedelic Postcard&apos;) 32bit\r\nWriting library                : libebml v1.3.1 + libmatroska v1.4.2\r\n\r\nVideo\r\nID                             : 1\r\nFormat                         : AVC\r\nFormat/Info                    : Advanced Video Codec\r\nFormat profile                 : High@L3.1\r\nFormat settings, CABAC         : Yes\r\nFormat settings, RefFrames     : 5 frames\r\nCodec ID                       : V_MPEG4/ISO/AVC\r\nDuration                       : 1 h 34 min\r\nBit rate                       : 1 034 kb/s\r\nWidth                          : 1 152 pixels\r\nHeight                         : 528 pixels\r\nDisplay aspect ratio           : 2.2:1\r\nFrame rate mode                : Constant\r\nFrame rate                     : 25.000 FPS\r\nColor space                    : YUV\r\nChroma subsampling             : 4:2:0\r\nBit depth                      : 8 bits\r\nScan type                      : Progressive\r\nBits/(Pixel*Frame)             : 0.068\r\nStream size                    : 702 MiB (89%)\r\nDefault                        : Yes\r\nForced                         : No\r\n\r\nAudio\r\nID                             : 2\r\nFormat                         : AAC\r\nFormat/Info                    : Advanced Audio Codec\r\nFormat profile                 : LC\r\nCodec ID                       : A_AAC\r\nDuration                       : 1 h 34 min\r\nBit rate                       : 128 kb/s\r\nChannel(s)                     : 2 channels\r\nChannel positions              : Front: L R\r\nSampling rate                  : 44.1 kHz\r\nFrame rate                     : 43.066 FPS (1024 SPF)\r\nCompression mode               : Lossy\r\nStream size                    : 87.0 MiB (11%)\r\nDefault                        : Yes\r\nForced                         : No","last_updated":"2018-05-10T12:05:23.547Z","parsed":{"xt":"urn:btih:639784acbb76a68fc2032552f1ef18a5756a8e8e","dn":"Isle of Dogs (2018) 720p HDCAM x264 ACC by Full4movies","tr":["udp://exodus.desync.com:6969","udp://open.demonii.com:1337","udp://tracker.coppersurfer.tk:6969","udp://tracker.leechers-paradise.org:6969","udp://zer0day.ch:1337"],"infoHash":"639784acbb76a68fc2032552f1ef18a5756a8e8e","infoHashBuffer":{"type":"Buffer","data":[99,151,132,172,187,118,166,143,194,3,37,82,241,239,24,165,117,106,142,142]},"name":"Isle of Dogs (2018) 720p HDCAM x264 ACC by Full4movies","announce":["udp://exodus.desync.com:6969","udp://open.demonii.com:1337","udp://tracker.coppersurfer.tk:6969","udp://tracker.leechers-paradise.org:6969","udp://zer0day.ch:1337"],"urlList":[]}}